<mxfile host="app.diagrams.net" modified="2023-12-19T09:15:47.185Z" agent="Mozilla/5.0 (Windows NT 10.0; Win64; x64) AppleWebKit/537.36 (KHTML, like Gecko) Chrome/120.0.0.0 Safari/537.36" etag="lxoGc0ToYPN4X04Juw9y" version="22.1.11" type="google">
  <diagram name="Page-1" id="BSeKgAo32RK6KH5N5qdn">
    <mxGraphModel grid="1" page="1" gridSize="10" guides="1" tooltips="1" connect="1" arrows="1" fold="1" pageScale="1" pageWidth="850" pageHeight="1100" math="0" shadow="0">
      <root>
        <mxCell id="0" />
        <mxCell id="1" parent="0" />
        <mxCell id="Nd2OgOmGZob16s5dhyg4-10" value="YES" style="edgeStyle=orthogonalEdgeStyle;rounded=0;orthogonalLoop=1;jettySize=auto;html=1;entryX=0;entryY=0.5;entryDx=0;entryDy=0;" edge="1" parent="1" source="Nd2OgOmGZob16s5dhyg4-1" target="Nd2OgOmGZob16s5dhyg4-9">
          <mxGeometry relative="1" as="geometry" />
        </mxCell>
        <mxCell id="Nd2OgOmGZob16s5dhyg4-23" value="NO" style="edgeStyle=orthogonalEdgeStyle;rounded=0;orthogonalLoop=1;jettySize=auto;html=1;" edge="1" parent="1" source="Nd2OgOmGZob16s5dhyg4-1" target="Nd2OgOmGZob16s5dhyg4-22">
          <mxGeometry relative="1" as="geometry" />
        </mxCell>
        <mxCell id="Nd2OgOmGZob16s5dhyg4-1" value="Can you run on your laptop/desktop?" style="rounded=1;whiteSpace=wrap;html=1;" vertex="1" parent="1">
          <mxGeometry x="170" y="120" width="120" height="60" as="geometry" />
        </mxCell>
        <mxCell id="Nd2OgOmGZob16s5dhyg4-13" style="edgeStyle=orthogonalEdgeStyle;rounded=0;orthogonalLoop=1;jettySize=auto;html=1;entryX=0;entryY=0.5;entryDx=0;entryDy=0;" edge="1" parent="1" source="Nd2OgOmGZob16s5dhyg4-9" target="Nd2OgOmGZob16s5dhyg4-11">
          <mxGeometry relative="1" as="geometry" />
        </mxCell>
        <mxCell id="Nd2OgOmGZob16s5dhyg4-15" value="NO" style="edgeStyle=orthogonalEdgeStyle;rounded=0;orthogonalLoop=1;jettySize=auto;html=1;" edge="1" parent="1" source="Nd2OgOmGZob16s5dhyg4-9" target="Nd2OgOmGZob16s5dhyg4-11">
          <mxGeometry relative="1" as="geometry" />
        </mxCell>
        <mxCell id="Nd2OgOmGZob16s5dhyg4-9" value="Can you use docker?" style="rounded=1;whiteSpace=wrap;html=1;" vertex="1" parent="1">
          <mxGeometry x="365" y="120" width="120" height="60" as="geometry" />
        </mxCell>
        <mxCell id="Nd2OgOmGZob16s5dhyg4-14" value="NO" style="edgeStyle=orthogonalEdgeStyle;rounded=0;orthogonalLoop=1;jettySize=auto;html=1;" edge="1" parent="1" source="Nd2OgOmGZob16s5dhyg4-11" target="Nd2OgOmGZob16s5dhyg4-12">
          <mxGeometry relative="1" as="geometry" />
        </mxCell>
        <mxCell id="Nd2OgOmGZob16s5dhyg4-11" value="Can you use conda?" style="rounded=1;whiteSpace=wrap;html=1;" vertex="1" parent="1">
          <mxGeometry x="540" y="120" width="120" height="60" as="geometry" />
        </mxCell>
        <mxCell id="Nd2OgOmGZob16s5dhyg4-42" value="NO" style="edgeStyle=orthogonalEdgeStyle;rounded=0;orthogonalLoop=1;jettySize=auto;html=1;entryX=1;entryY=0.5;entryDx=0;entryDy=0;exitX=0.5;exitY=1;exitDx=0;exitDy=0;" edge="1" parent="1" source="Nd2OgOmGZob16s5dhyg4-12" target="Nd2OgOmGZob16s5dhyg4-22">
          <mxGeometry relative="1" as="geometry">
            <Array as="points">
              <mxPoint x="790" y="220" />
              <mxPoint x="230" y="220" />
              <mxPoint x="230" y="255" />
              <mxPoint x="220" y="255" />
              <mxPoint x="220" y="265" />
            </Array>
          </mxGeometry>
        </mxCell>
        <mxCell id="Nd2OgOmGZob16s5dhyg4-12" value="Can you use PIP?" style="rounded=1;whiteSpace=wrap;html=1;" vertex="1" parent="1">
          <mxGeometry x="730" y="120" width="120" height="60" as="geometry" />
        </mxCell>
        <mxCell id="Nd2OgOmGZob16s5dhyg4-16" value="Try SCISERVER&lt;br&gt;(instructions)" style="rounded=1;whiteSpace=wrap;html=1;" vertex="1" parent="1">
          <mxGeometry x="80" y="380" width="120" height="60" as="geometry" />
        </mxCell>
        <mxCell id="Nd2OgOmGZob16s5dhyg4-17" value="Try CHPC machines&lt;br&gt;(instructions)" style="rounded=1;whiteSpace=wrap;html=1;" vertex="1" parent="1">
          <mxGeometry x="-80" y="380" width="120" height="60" as="geometry" />
        </mxCell>
        <mxCell id="Nd2OgOmGZob16s5dhyg4-18" value="Try DEEPNOTE&amp;nbsp;" style="rounded=1;whiteSpace=wrap;html=1;" vertex="1" parent="1">
          <mxGeometry x="220" y="380" width="120" height="60" as="geometry" />
        </mxCell>
        <mxCell id="Nd2OgOmGZob16s5dhyg4-19" value="Try SaturnCloud" style="rounded=1;whiteSpace=wrap;html=1;" vertex="1" parent="1">
          <mxGeometry x="360" y="380" width="120" height="60" as="geometry" />
        </mxCell>
        <mxCell id="Nd2OgOmGZob16s5dhyg4-20" value="Try CYVERSE" style="rounded=1;whiteSpace=wrap;html=1;" vertex="1" parent="1">
          <mxGeometry x="500" y="380" width="120" height="60" as="geometry" />
        </mxCell>
        <mxCell id="Nd2OgOmGZob16s5dhyg4-25" style="edgeStyle=orthogonalEdgeStyle;rounded=0;orthogonalLoop=1;jettySize=auto;html=1;entryX=0.5;entryY=0;entryDx=0;entryDy=0;" edge="1" parent="1" source="Nd2OgOmGZob16s5dhyg4-22" target="Nd2OgOmGZob16s5dhyg4-17">
          <mxGeometry relative="1" as="geometry" />
        </mxCell>
        <mxCell id="Nd2OgOmGZob16s5dhyg4-26" style="edgeStyle=orthogonalEdgeStyle;rounded=0;orthogonalLoop=1;jettySize=auto;html=1;entryX=0.5;entryY=0;entryDx=0;entryDy=0;" edge="1" parent="1" source="Nd2OgOmGZob16s5dhyg4-22" target="Nd2OgOmGZob16s5dhyg4-16">
          <mxGeometry relative="1" as="geometry" />
        </mxCell>
        <mxCell id="Nd2OgOmGZob16s5dhyg4-27" style="edgeStyle=orthogonalEdgeStyle;rounded=0;orthogonalLoop=1;jettySize=auto;html=1;" edge="1" parent="1" source="Nd2OgOmGZob16s5dhyg4-22" target="Nd2OgOmGZob16s5dhyg4-18">
          <mxGeometry relative="1" as="geometry" />
        </mxCell>
        <mxCell id="Nd2OgOmGZob16s5dhyg4-28" style="edgeStyle=orthogonalEdgeStyle;rounded=0;orthogonalLoop=1;jettySize=auto;html=1;" edge="1" parent="1" source="Nd2OgOmGZob16s5dhyg4-22" target="Nd2OgOmGZob16s5dhyg4-19">
          <mxGeometry relative="1" as="geometry" />
        </mxCell>
        <mxCell id="Nd2OgOmGZob16s5dhyg4-29" style="edgeStyle=orthogonalEdgeStyle;rounded=0;orthogonalLoop=1;jettySize=auto;html=1;entryX=0.5;entryY=0;entryDx=0;entryDy=0;" edge="1" parent="1" source="Nd2OgOmGZob16s5dhyg4-22" target="Nd2OgOmGZob16s5dhyg4-20">
          <mxGeometry relative="1" as="geometry" />
        </mxCell>
        <mxCell id="Nd2OgOmGZob16s5dhyg4-22" value="" style="rhombus;whiteSpace=wrap;html=1;" vertex="1" parent="1">
          <mxGeometry x="205" y="240" width="50" height="50" as="geometry" />
        </mxCell>
        <mxCell id="Nd2OgOmGZob16s5dhyg4-31" value="Instructions" style="swimlane;fontStyle=0;childLayout=stackLayout;horizontal=1;startSize=30;horizontalStack=0;resizeParent=1;resizeParentMax=0;resizeLast=0;collapsible=1;marginBottom=0;whiteSpace=wrap;html=1;" vertex="1" parent="1">
          <mxGeometry x="390" y="-10" width="70" height="60" as="geometry" />
        </mxCell>
        <mxCell id="Nd2OgOmGZob16s5dhyg4-32" value="..." style="text;strokeColor=none;fillColor=none;align=left;verticalAlign=middle;spacingLeft=4;spacingRight=4;overflow=hidden;points=[[0,0.5],[1,0.5]];portConstraint=eastwest;rotatable=0;whiteSpace=wrap;html=1;" vertex="1" parent="Nd2OgOmGZob16s5dhyg4-31">
          <mxGeometry y="30" width="70" height="30" as="geometry" />
        </mxCell>
        <mxCell id="Nd2OgOmGZob16s5dhyg4-35" value="Instructions" style="swimlane;fontStyle=0;childLayout=stackLayout;horizontal=1;startSize=30;horizontalStack=0;resizeParent=1;resizeParentMax=0;resizeLast=0;collapsible=1;marginBottom=0;whiteSpace=wrap;html=1;" vertex="1" parent="1">
          <mxGeometry x="570" y="-10" width="70" height="60" as="geometry" />
        </mxCell>
        <mxCell id="Nd2OgOmGZob16s5dhyg4-36" value="..." style="text;strokeColor=none;fillColor=none;align=left;verticalAlign=middle;spacingLeft=4;spacingRight=4;overflow=hidden;points=[[0,0.5],[1,0.5]];portConstraint=eastwest;rotatable=0;whiteSpace=wrap;html=1;" vertex="1" parent="Nd2OgOmGZob16s5dhyg4-35">
          <mxGeometry y="30" width="70" height="30" as="geometry" />
        </mxCell>
        <mxCell id="Nd2OgOmGZob16s5dhyg4-37" value="Instructions" style="swimlane;fontStyle=0;childLayout=stackLayout;horizontal=1;startSize=30;horizontalStack=0;resizeParent=1;resizeParentMax=0;resizeLast=0;collapsible=1;marginBottom=0;whiteSpace=wrap;html=1;" vertex="1" parent="1">
          <mxGeometry x="755" y="-10" width="70" height="60" as="geometry" />
        </mxCell>
        <mxCell id="Nd2OgOmGZob16s5dhyg4-38" value="..." style="text;strokeColor=none;fillColor=none;align=left;verticalAlign=middle;spacingLeft=4;spacingRight=4;overflow=hidden;points=[[0,0.5],[1,0.5]];portConstraint=eastwest;rotatable=0;whiteSpace=wrap;html=1;" vertex="1" parent="Nd2OgOmGZob16s5dhyg4-37">
          <mxGeometry y="30" width="70" height="30" as="geometry" />
        </mxCell>
        <mxCell id="Nd2OgOmGZob16s5dhyg4-39" value="YES" style="edgeStyle=orthogonalEdgeStyle;rounded=0;orthogonalLoop=1;jettySize=auto;html=1;entryX=0.443;entryY=0.967;entryDx=0;entryDy=0;entryPerimeter=0;" edge="1" parent="1" source="Nd2OgOmGZob16s5dhyg4-9" target="Nd2OgOmGZob16s5dhyg4-32">
          <mxGeometry relative="1" as="geometry" />
        </mxCell>
        <mxCell id="Nd2OgOmGZob16s5dhyg4-40" value="YES" style="edgeStyle=orthogonalEdgeStyle;rounded=0;orthogonalLoop=1;jettySize=auto;html=1;entryX=0.543;entryY=0.967;entryDx=0;entryDy=0;entryPerimeter=0;" edge="1" parent="1" source="Nd2OgOmGZob16s5dhyg4-11" target="Nd2OgOmGZob16s5dhyg4-36">
          <mxGeometry relative="1" as="geometry" />
        </mxCell>
        <mxCell id="Nd2OgOmGZob16s5dhyg4-41" value="YES" style="edgeStyle=orthogonalEdgeStyle;rounded=0;orthogonalLoop=1;jettySize=auto;html=1;entryX=0.414;entryY=0.967;entryDx=0;entryDy=0;entryPerimeter=0;" edge="1" parent="1" source="Nd2OgOmGZob16s5dhyg4-12" target="Nd2OgOmGZob16s5dhyg4-38">
          <mxGeometry relative="1" as="geometry" />
        </mxCell>
        <mxCell id="Nd2OgOmGZob16s5dhyg4-43" value="Instructions" style="swimlane;fontStyle=0;childLayout=stackLayout;horizontal=1;startSize=30;horizontalStack=0;resizeParent=1;resizeParentMax=0;resizeLast=0;collapsible=1;marginBottom=0;whiteSpace=wrap;html=1;" vertex="1" parent="1">
          <mxGeometry x="-55" y="460" width="70" height="60" as="geometry" />
        </mxCell>
        <mxCell id="Nd2OgOmGZob16s5dhyg4-44" value="..." style="text;strokeColor=none;fillColor=none;align=left;verticalAlign=middle;spacingLeft=4;spacingRight=4;overflow=hidden;points=[[0,0.5],[1,0.5]];portConstraint=eastwest;rotatable=0;whiteSpace=wrap;html=1;" vertex="1" parent="Nd2OgOmGZob16s5dhyg4-43">
          <mxGeometry y="30" width="70" height="30" as="geometry" />
        </mxCell>
        <mxCell id="Nd2OgOmGZob16s5dhyg4-50" value="Instructions" style="swimlane;fontStyle=0;childLayout=stackLayout;horizontal=1;startSize=30;horizontalStack=0;resizeParent=1;resizeParentMax=0;resizeLast=0;collapsible=1;marginBottom=0;whiteSpace=wrap;html=1;" vertex="1" parent="1">
          <mxGeometry x="105" y="460" width="70" height="60" as="geometry" />
        </mxCell>
        <mxCell id="Nd2OgOmGZob16s5dhyg4-51" value="..." style="text;strokeColor=none;fillColor=none;align=left;verticalAlign=middle;spacingLeft=4;spacingRight=4;overflow=hidden;points=[[0,0.5],[1,0.5]];portConstraint=eastwest;rotatable=0;whiteSpace=wrap;html=1;" vertex="1" parent="Nd2OgOmGZob16s5dhyg4-50">
          <mxGeometry y="30" width="70" height="30" as="geometry" />
        </mxCell>
        <mxCell id="Nd2OgOmGZob16s5dhyg4-52" value="Instructions" style="swimlane;fontStyle=0;childLayout=stackLayout;horizontal=1;startSize=30;horizontalStack=0;resizeParent=1;resizeParentMax=0;resizeLast=0;collapsible=1;marginBottom=0;whiteSpace=wrap;html=1;" vertex="1" parent="1">
          <mxGeometry x="245" y="460" width="70" height="60" as="geometry" />
        </mxCell>
        <mxCell id="Nd2OgOmGZob16s5dhyg4-53" value="..." style="text;strokeColor=none;fillColor=none;align=left;verticalAlign=middle;spacingLeft=4;spacingRight=4;overflow=hidden;points=[[0,0.5],[1,0.5]];portConstraint=eastwest;rotatable=0;whiteSpace=wrap;html=1;" vertex="1" parent="Nd2OgOmGZob16s5dhyg4-52">
          <mxGeometry y="30" width="70" height="30" as="geometry" />
        </mxCell>
        <mxCell id="Nd2OgOmGZob16s5dhyg4-54" value="Instructions" style="swimlane;fontStyle=0;childLayout=stackLayout;horizontal=1;startSize=30;horizontalStack=0;resizeParent=1;resizeParentMax=0;resizeLast=0;collapsible=1;marginBottom=0;whiteSpace=wrap;html=1;" vertex="1" parent="1">
          <mxGeometry x="385" y="460" width="70" height="60" as="geometry" />
        </mxCell>
        <mxCell id="Nd2OgOmGZob16s5dhyg4-55" value="..." style="text;strokeColor=none;fillColor=none;align=left;verticalAlign=middle;spacingLeft=4;spacingRight=4;overflow=hidden;points=[[0,0.5],[1,0.5]];portConstraint=eastwest;rotatable=0;whiteSpace=wrap;html=1;" vertex="1" parent="Nd2OgOmGZob16s5dhyg4-54">
          <mxGeometry y="30" width="70" height="30" as="geometry" />
        </mxCell>
        <mxCell id="Nd2OgOmGZob16s5dhyg4-56" value="Instructions" style="swimlane;fontStyle=0;childLayout=stackLayout;horizontal=1;startSize=30;horizontalStack=0;resizeParent=1;resizeParentMax=0;resizeLast=0;collapsible=1;marginBottom=0;whiteSpace=wrap;html=1;" vertex="1" parent="1">
          <mxGeometry x="525" y="460" width="70" height="60" as="geometry" />
        </mxCell>
        <mxCell id="Nd2OgOmGZob16s5dhyg4-57" value="..." style="text;strokeColor=none;fillColor=none;align=left;verticalAlign=middle;spacingLeft=4;spacingRight=4;overflow=hidden;points=[[0,0.5],[1,0.5]];portConstraint=eastwest;rotatable=0;whiteSpace=wrap;html=1;" vertex="1" parent="Nd2OgOmGZob16s5dhyg4-56">
          <mxGeometry y="30" width="70" height="30" as="geometry" />
        </mxCell>
      </root>
    </mxGraphModel>
  </diagram>
</mxfile>
